<svg width="21" height="20" viewBox="0 0 21 20" fill="none" xmlns="http://www.w3.org/2000/svg">
<g clip-path="url(#clip0_63_2364)">
<path d="M9.33203 3.33337H3.4987C3.05667 3.33337 2.63275 3.50897 2.32019 3.82153C2.00763 4.13409 1.83203 4.55801 1.83203 5.00004V16.6667C1.83203 17.1087 2.00763 17.5327 2.32019 17.8452C2.63275 18.1578 3.05667 18.3334 3.4987 18.3334H15.1654C15.6074 18.3334 16.0313 18.1578 16.3439 17.8452C16.6564 17.5327 16.832 17.1087 16.832 16.6667V10.8334" stroke="white" stroke-width="2" stroke-linecap="round" stroke-linejoin="round"/>
<path d="M15.582 2.08332C15.9136 1.7518 16.3632 1.56555 16.832 1.56555C17.3009 1.56555 17.7505 1.7518 18.082 2.08332C18.4136 2.41484 18.5998 2.86448 18.5998 3.33332C18.5998 3.80216 18.4136 4.2518 18.082 4.58332L10.1654 12.5L6.83203 13.3333L7.66536 9.99999L15.582 2.08332Z" stroke="white" stroke-width="2" stroke-linecap="round" stroke-linejoin="round"/>
</g>
<defs>
<clipPath id="clip0_63_2364">
<rect width="20" height="20" fill="white" transform="translate(0.165283)"/>
</clipPath>
</defs>
</svg>
