<svg width="21" height="20" viewBox="0 0 21 20" fill="none" xmlns="http://www.w3.org/2000/svg">
<path d="M3.30103 5H4.96769H18.301" stroke="white" stroke-width="2" stroke-linecap="round" stroke-linejoin="round"/>
<path d="M16.6344 4.99996V16.6666C16.6344 17.1087 16.4588 17.5326 16.1463 17.8451C15.8337 18.1577 15.4098 18.3333 14.9678 18.3333H6.63444C6.19241 18.3333 5.76849 18.1577 5.45593 17.8451C5.14337 17.5326 4.96777 17.1087 4.96777 16.6666V4.99996M7.46777 4.99996V3.33329C7.46777 2.89127 7.64337 2.46734 7.95593 2.15478C8.26849 1.84222 8.69241 1.66663 9.13444 1.66663H12.4678C12.9098 1.66663 13.3337 1.84222 13.6463 2.15478C13.9588 2.46734 14.1344 2.89127 14.1344 3.33329V4.99996" stroke="white" stroke-width="2" stroke-linecap="round" stroke-linejoin="round"/>
<path d="M9.13428 9.16663V14.1666" stroke="white" stroke-width="2" stroke-linecap="round" stroke-linejoin="round"/>
<path d="M12.4678 9.16663V14.1666" stroke="white" stroke-width="2" stroke-linecap="round" stroke-linejoin="round"/>
</svg>
